<svg
    viewBox="0 0 24 24"
    fill="currentColor"
    className="w-7 h-7"
    xmlns="http://www.w3.org/2000/svg"
  >
    <path
      fillRule="evenodd"
      clipRule="evenodd"
      d="M12 .5C5.73.5.5 5.73.5 12a11.5 11.5 0 0 0 7.86 10.94c.58.1.79-.25.79-.56
         0-.28-.01-1.02-.02-2-3.2.7-3.88-1.54-3.88-1.54-.53-1.36-1.28-1.72-1.28-1.72-1.05-.72.08-.7.08-.7
         1.16.08 1.77 1.19 1.77 1.19 1.03 1.77 2.7 1.26 3.36.96.1-.75.4-1.26.72-1.55-2.56-.29-5.26-1.28-5.26-5.7
         0-1.26.45-2.3 1.19-3.11-.12-.29-.52-1.47.11-3.06 0 0 .97-.31 3.18 1.19a11.1 11.1 0 0 1 5.8 0
         c2.2-1.5 3.17-1.19 3.17-1.19.63 1.59.24 2.77.12 3.06.74.81 1.19 1.85 1.19 3.11
         0 4.43-2.71 5.41-5.29 5.69.42.37.77 1.1.77 2.22 0 1.6-.01 2.88-.01 3.27 0 .31.21.67.8.56
         A11.5 11.5 0 0 0 23.5 12C23.5 5.73 18.27.5 12 .5Z"
    />
  </svg>