<svg width="41" height="12" viewBox="0 0 41 12" fill="none" xmlns="http://www.w3.org/2000/svg">
<path fill-rule="evenodd" clip-rule="evenodd" d="M1.85825 0.29H8.81919C9.10641 0.276417 9.38268 0.177035 9.61147 0.005C9.64048 0.00372957 9.66878 0.0140986 9.68994 0.03375C9.71303 0.0606128 9.72872 0.0929017 9.7355 0.1275L10.5936 3.9725V4.02125C10.5958 4.06723 10.5794 4.11219 10.548 4.14625C10.5223 4.17663 10.4844 4.19443 10.4442 4.195C10.3455 4.195 10.2342 4.02833 10.1101 3.695C10.0031 3.39705 9.8666 3.11025 9.70259 2.83875C9.34429 2.26916 8.87286 1.77718 8.31673 1.3925C7.77101 1.02335 7.15258 0.772047 6.50183 0.655V9.5625C6.48622 9.88185 6.5195 10.2017 6.60055 10.5112C6.6616 10.6877 6.78462 10.8367 6.94733 10.9312C7.15879 11.0369 7.39029 11.0978 7.62697 11.11C7.93831 11.1425 8.09398 11.2212 8.09398 11.3462C8.10035 11.4032 8.0752 11.459 8.02817 11.4925C7.95884 11.5252 7.88204 11.5394 7.80542 11.5337H2.79102C2.70901 11.5406 2.62661 11.5264 2.55181 11.4925C2.50386 11.4597 2.47808 11.4035 2.48473 11.3462C2.48473 11.2212 2.62775 11.1438 2.91378 11.1138C3.13011 11.0993 3.34323 11.0543 3.54659 10.98C3.73289 10.8996 3.87971 10.7501 3.95539 10.5638C4.0347 10.3738 4.07436 10.0404 4.07436 9.56375V0.65625C3.42604 0.771336 2.8097 1.02054 2.26578 1.3875C1.70827 1.77409 1.23488 2.26714 0.873593 2.8375C0.706924 3.10944 0.569086 3.39763 0.462265 3.6975C0.340765 4.02583 0.230656 4.19 0.131937 4.19C0.0956153 4.18836 0.0620484 4.1704 0.0408121 4.14125C0.0120848 4.10599 -0.00234932 4.06144 0.000312074 4.01625V3.9675L0.964718 0.11375C0.971912 0.083183 0.989295 0.0558894 1.01408 0.03625C1.03607 0.014611 1.06535 0.00170984 1.09634 0C1.16838 0.0408813 1.2362 0.0886074 1.29884 0.1425C1.46381 0.251105 1.66043 0.302949 1.85825 0.29ZM21.4223 1.72031C20.3026 0.620312 18.8851 0.0703125 17.1698 0.0703125C15.4435 0.0703125 14.0205 0.620312 12.9008 1.72031C11.7812 2.82031 11.2213 4.21781 11.2213 5.91281C11.2123 6.82362 11.4127 7.72457 11.8073 8.54781C12.1919 9.34838 12.7663 10.0456 13.4817 10.5803C13.9909 10.9739 14.5663 11.276 15.1815 11.4728C15.8241 11.6755 16.4952 11.7759 17.1698 11.7703C18.886 11.7703 20.3035 11.2161 21.4223 10.1078C22.5411 8.99948 23.1005 7.60115 23.1005 5.91281C23.1013 4.21781 22.5419 2.82031 21.4223 1.72031ZM14.7195 1.82992C15.2865 0.889922 16.1033 0.419922 17.1698 0.419922C18.2253 0.420755 19.0349 0.890755 19.5985 1.82992C20.1621 2.76909 20.4439 4.12992 20.4439 5.91242C20.4439 7.69325 20.1634 9.05367 19.6023 9.99367C19.0412 10.9337 18.2304 11.4037 17.1698 11.4037C16.1033 11.4028 15.2865 10.9328 14.7195 9.99367C14.1525 9.0545 13.869 7.69409 13.869 5.91242C13.869 4.13075 14.1525 2.76992 14.7195 1.82992ZM29.1223 0.289871H24.7344C24.6407 0.282715 24.5467 0.299053 24.461 0.337371C24.407 0.374029 24.377 0.436567 24.3826 0.501121C24.3826 0.603621 24.5015 0.684871 24.7382 0.728621C24.8474 0.743558 24.955 0.768242 25.0597 0.802371C25.2586 0.880743 25.4264 1.02064 25.5381 1.20112C25.6543 1.40481 25.7112 1.63624 25.7026 1.86987V9.54487C25.7026 10.0274 25.6583 10.3636 25.5761 10.5511C25.4941 10.7374 25.3479 10.8889 25.1635 10.9786C25.0141 11.0425 24.8572 11.0874 24.6964 11.1124C24.4851 11.1536 24.3788 11.2261 24.3788 11.3286C24.3722 11.3894 24.3975 11.4493 24.4459 11.4874C24.5366 11.5265 24.6359 11.5419 24.7344 11.5324H29.1223C29.2168 11.5411 29.3119 11.5269 29.3995 11.4911C29.4464 11.4506 29.4697 11.3896 29.4615 11.3286C29.4615 11.2261 29.3527 11.1536 29.135 11.1124C28.9776 11.0898 28.8237 11.0478 28.6768 10.9874C28.492 10.8982 28.3456 10.7465 28.2642 10.5599C28.1883 10.3786 28.1491 10.0461 28.1491 9.54612V2.28612C28.1491 1.79237 28.1883 1.45487 28.2642 1.27612C28.345 1.09251 28.4883 0.942597 28.6692 0.852371C28.8196 0.783172 28.9796 0.736412 29.1439 0.713621C29.3552 0.676121 29.4615 0.604871 29.4615 0.502371C29.4674 0.438631 29.4391 0.376495 29.3869 0.338621C29.3048 0.299101 29.2134 0.282256 29.1223 0.289871Z" fill="#1A1A1A"/>
<path fill-rule="evenodd" clip-rule="evenodd" d="M34.3962 10.1172V7.38348H31.6333V4.37973H34.3962V1.65723H37.4261V4.37973H40.1991V7.38348H37.4261V10.1172H34.3962V10.1172Z" fill="#EC2227"/>
<path fill-rule="evenodd" clip-rule="evenodd" d="M35.6884 8.83957V6.10582H32.9268V5.65707H35.6884V2.93457H36.1326V5.65707H38.9056V6.10582H36.1326V8.83957H35.6884Z" fill="white"/>
</svg>
