<svg width="50" height="40" viewBox="0 0 50 40" fill="none" xmlns="http://www.w3.org/2000/svg">
<g clip-path="url(#clip0_299_5087)">
<path d="M42.5 0H7.5C3.35786 0 0 3.35786 0 7.5V32.5C0 36.6421 3.35786 40 7.5 40H42.5C46.6421 40 50 36.6421 50 32.5V7.5C50 3.35786 46.6421 0 42.5 0Z" fill="#FFB900"/>
<mask id="mask0_299_5087" style="mask-type:luminance" maskUnits="userSpaceOnUse" x="15" y="29" width="21" height="4">
<path d="M15.6992 29.0113H35.3392V32.6125H15.6992V29.0113Z" fill="white"/>
</mask>
<g mask="url(#mask0_299_5087)">
<path fill-rule="evenodd" clip-rule="evenodd" d="M33.5392 29.0113H17.4992C16.5042 29.0113 15.6992 29.8188 15.6992 30.8113C15.6992 31.8063 16.5042 32.6138 17.4992 32.6138H33.5392C34.5342 32.6138 35.3392 31.8063 35.3392 30.8113C35.3392 29.8188 34.5342 29.0113 33.5392 29.0113Z" fill="#122241"/>
</g>
<mask id="mask1_299_5087" style="mask-type:luminance" maskUnits="userSpaceOnUse" x="10" y="7" width="32" height="20">
<path d="M10 7.5H41.4398V26.8895H10V7.5Z" fill="white"/>
</mask>
<g mask="url(#mask1_299_5087)">
<path fill-rule="evenodd" clip-rule="evenodd" d="M38.3825 7.5C36.7 7.5 35.33 8.865 35.33 10.5525C35.33 11.6425 35.9025 12.5925 36.76 13.1325C35.7575 15.33 33.115 20.335 29.8675 20.31C26.795 20.2875 26.1875 15.88 26.0825 13.5775C27.595 13.4 28.77 12.1125 28.77 10.5525C28.77 8.87 27.405 7.5 25.7175 7.5C24.03 7.5 22.665 8.865 22.665 10.5525C22.665 12.03 23.7125 13.26 25.1075 13.5425C24.9925 15.8675 24.33 20.23 20.9825 20.2875C17.965 20.335 15.5225 15.92 14.35 13.3125C15.385 12.8225 16.1025 11.7725 16.1025 10.5525C16.1 8.865 14.735 7.5 13.0525 7.5C11.3675 7.5 10 8.865 10 10.5525C10 12.24 11.285 13.5175 12.9025 13.595L15.215 25.0625C15.215 25.0625 15.5325 26.8275 17.3425 26.87C19.15 26.915 34.035 26.87 34.035 26.87C34.035 26.87 35.44 27.005 35.845 25.0175C36.16 23.4875 37.5925 16.6725 38.2375 13.6C38.2875 13.6 38.34 13.6075 38.3875 13.6075C40.07 13.6075 41.44 12.2425 41.44 10.5575C41.44 8.87 40.075 7.505 38.3875 7.505L38.3825 7.5Z" fill="#122241"/>
</g>
</g>
<defs>
<clipPath id="clip0_299_5087">
<rect width="50" height="40" fill="white"/>
</clipPath>
</defs>
</svg>
